# xmcd CD database file
#
# Track frame offsets:
#	150
#	12055
#	20752
#	32885
#	45797
#	59902
#	74807
#	86362
#	98570
#	110112
#	128167
#	143035
#	161457
#	175525
#	189712
#	201180
#	216342
#	230347
#	244997
#	258327
#	269137
#	279947
#	293997
#	308992
#	321822
#
# Disc length: 4430 seconds
#
# Revision: 0
# Processed by: cddbd v1.5.2PL0 Copyright (c) Steve Scherf et al.
# Submitted via: CD2WAV32(JP) R3.22
#
DISCID=78114c19
DTITLE=加山雄三 - Singles Collection Disc 2
DYEAR=2002
DGENRE=JPop
TTITLE0=幻のアマリリア
TTITLE1=夢の瞳
TTITLE2=美しき春
TTITLE3=さよなら又明日
TTITLE4=ある日渚に
TTITLE5=暗い波
TTITLE6=しのび逢い
TTITLE7=何故
TTITLE8=いい娘だから
TTITLE9=たった一つの恋
TTITLE10=大空の彼方
TTITLE11=俺たち
TTITLE12=さよならとさよなら
TTITLE13=ぼくのお嫁さん
TTITLE14=淋しい二人
TTITLE15=美しいヴィーナス
TTITLE16=君かもしれない 僕かもしれない
TTITLE17=追いつめられて
TTITLE18=愛はいつまでも
TTITLE19=荒野をもとめて
TTITLE20=君に大空を
TTITLE21=神様の忘れもの
TTITLE22=海鳴りがよんでいる
TTITLE23=雨のシャッフル
TTITLE24=男ひとり
EXTD=
EXTT0=
EXTT1=
EXTT2=
EXTT3=
EXTT4=
EXTT5=
EXTT6=
EXTT7=
EXTT8=
EXTT9=
EXTT10=
EXTT11=
EXTT12=
EXTT13=
EXTT14=
EXTT15=
EXTT16=
EXTT17=
EXTT18=
EXTT19=
EXTT20=
EXTT21=
EXTT22=
EXTT23=
EXTT24=
PLAYORDER=
